# xmcd CD database file
#
# Track frame offsets:
#	150
#	18089
#	40881
#	58859
#	74994
#	93924
#	107636
#	126513
#	151934
#	168057
#	192298
#	207857
#	224099
#	250423
#	267581
#	282459
#
# Disc length: 3942 seconds
#
# Revision: 1
# Processed by: cddbd v1.5.2PL0 Copyright (c) Steve Scherf et al.
# Submitted via: CDex 1.51
#
DISCID=f90f6410
DTITLE=Cephas and Wiggins - Richmond Blues
DYEAR=2008
DGENRE=Blues
TTITLE0=Richmond Blues
TTITLE1=GoingTo The River
TTITLE2=Keep Your Hands Off My Baby
TTITLE3=Black Rat Swing
TTITLE4=Mamie
TTITLE5=Crow Jane
TTITLE6=Dog Days Of August
TTITLE7=John Henry
TTITLE8=Pigmeat Crave
TTITLE9=Prison Bound Blues
TTITLE10=Key To The Highway
TTITLE11=Going Down The Road Feeling Bad
TTITLE12=Careless Love
TTITLE13=Great Change
TTITLE14=Reno Factor
TTITLE15=Step It Up And Go
EXTD=YEAR: 2008
EXTT0=
EXTT1=
EXTT2=
EXTT3=
EXTT4=
EXTT5=
EXTT6=
EXTT7=
EXTT8=
EXTT9=
EXTT10=
EXTT11=
EXTT12=
EXTT13=
EXTT14=
EXTT15=
PLAYORDER=
